<?xml version="1.0" encoding="UTF-8"?>
<svg xmlns="http://www.w3.org/2000/svg"
     xmlns:xlink="http://www.w3.org/1999/xlink"
     version="1.2"
     width="100mm" height="86.6mm" viewBox="0 0 100 86.6"
     stroke="none"
     fill="#000000"
     stroke-width="0.3"
     font-size="3.88"
>
<defs>
  <marker id="arrow" markerWidth="15" markerHeight="7" refX="5" refY="3.5" orient="auto" markerUnits="strokeWidth">
    <path d="M0,0 L15,3.5 L0,7 z" stroke="context-stroke" fill="context-stroke"/>
  </marker>
</defs>
<g stroke="#000000" fill="#000000" fill-opacity="0.000" stroke-width="0.2" id="img-b5dc0c2f-1">
  <g transform="translate(93.75,82.99)">
    <path d="M6.25,3.61 L -6.25 3.61 0 -7.22 z" class="primitive"/>
  </g>
  <g transform="translate(81.25,82.99)">
    <path d="M6.25,3.61 L -6.25 3.61 0 -7.22 z" class="primitive"/>
  </g>
  <g transform="translate(87.5,72.17)">
    <path d="M6.25,3.61 L -6.25 3.61 0 -7.22 z" class="primitive"/>
  </g>
  <g transform="translate(68.75,82.99)">
    <path d="M6.25,3.61 L -6.25 3.61 0 -7.22 z" class="primitive"/>
  </g>
  <g transform="translate(56.25,82.99)">
    <path d="M6.25,3.61 L -6.25 3.61 0 -7.22 z" class="primitive"/>
  </g>
  <g transform="translate(62.5,72.17)">
    <path d="M6.25,3.61 L -6.25 3.61 0 -7.22 z" class="primitive"/>
  </g>
  <g transform="translate(81.25,61.34)">
    <path d="M6.25,3.61 L -6.25 3.61 0 -7.22 z" class="primitive"/>
  </g>
  <g transform="translate(68.75,61.34)">
    <path d="M6.25,3.61 L -6.25 3.61 0 -7.22 z" class="primitive"/>
  </g>
  <g transform="translate(75,50.52)">
    <path d="M6.25,3.61 L -6.25 3.61 0 -7.22 z" class="primitive"/>
  </g>
  <g transform="translate(43.75,82.99)">
    <path d="M6.25,3.61 L -6.25 3.61 0 -7.22 z" class="primitive"/>
  </g>
  <g transform="translate(31.25,82.99)">
    <path d="M6.25,3.61 L -6.25 3.61 0 -7.22 z" class="primitive"/>
  </g>
  <g transform="translate(37.5,72.17)">
    <path d="M6.25,3.61 L -6.25 3.61 0 -7.22 z" class="primitive"/>
  </g>
  <g transform="translate(18.75,82.99)">
    <path d="M6.25,3.61 L -6.25 3.61 0 -7.22 z" class="primitive"/>
  </g>
  <g transform="translate(6.25,82.99)">
    <path d="M6.25,3.61 L -6.25 3.61 0 -7.22 z" class="primitive"/>
  </g>
  <g transform="translate(12.5,72.17)">
    <path d="M6.25,3.61 L -6.25 3.61 0 -7.22 z" class="primitive"/>
  </g>
  <g transform="translate(31.25,61.34)">
    <path d="M6.25,3.61 L -6.25 3.61 0 -7.22 z" class="primitive"/>
  </g>
  <g transform="translate(18.75,61.34)">
    <path d="M6.25,3.61 L -6.25 3.61 0 -7.22 z" class="primitive"/>
  </g>
  <g transform="translate(25,50.52)">
    <path d="M6.25,3.61 L -6.25 3.61 0 -7.22 z" class="primitive"/>
  </g>
  <g transform="translate(68.75,39.69)">
    <path d="M6.25,3.61 L -6.25 3.61 0 -7.22 z" class="primitive"/>
  </g>
  <g transform="translate(56.25,39.69)">
    <path d="M6.25,3.61 L -6.25 3.61 0 -7.22 z" class="primitive"/>
  </g>
  <g transform="translate(62.5,28.87)">
    <path d="M6.25,3.61 L -6.25 3.61 0 -7.22 z" class="primitive"/>
  </g>
  <g transform="translate(43.75,39.69)">
    <path d="M6.25,3.61 L -6.25 3.61 0 -7.22 z" class="primitive"/>
  </g>
  <g transform="translate(31.25,39.69)">
    <path d="M6.25,3.61 L -6.25 3.61 0 -7.22 z" class="primitive"/>
  </g>
  <g transform="translate(37.5,28.87)">
    <path d="M6.25,3.61 L -6.25 3.61 0 -7.22 z" class="primitive"/>
  </g>
  <g transform="translate(56.25,18.04)">
    <path d="M6.25,3.61 L -6.25 3.61 0 -7.22 z" class="primitive"/>
  </g>
  <g transform="translate(43.75,18.04)">
    <path d="M6.25,3.61 L -6.25 3.61 0 -7.22 z" class="primitive"/>
  </g>
  <g transform="translate(50,7.22)">
    <path d="M6.25,3.61 L -6.25 3.61 0 -7.22 z" class="primitive"/>
  </g>
</g>
</svg>
