<?xml version="1.0" encoding="UTF-8"?>
<svg xmlns="http://www.w3.org/2000/svg"
     xmlns:xlink="http://www.w3.org/1999/xlink"
     xmlns:gadfly="http://www.gadflyjl.org/ns"
     version="1.2"
     width="203.2mm" height="203.2mm" viewBox="0 0 203.2 203.2"
     stroke="none"
     fill="#000000"
     stroke-width="0.3"
     font-size="3.88"
>
<defs>
  <marker id="arrow" markerWidth="15" markerHeight="7" refX="5" refY="3.5" orient="auto" markerUnits="strokeWidth">
    <path d="M0,0 L15,3.5 L0,7 z" stroke="context-stroke" fill="context-stroke"/>
  </marker>
</defs>
<g class="plotroot xscalable yscalable" id="img-ea19d292-1">
  <g font-size="3.88" font-family="'PT Sans','Helvetica Neue','Helvetica',sans-serif" fill="#564A55" stroke="#000000" stroke-opacity="0.000" id="img-ea19d292-2">
    <g transform="translate(51.41,89.99)">
      <g class="primitive">
        <text text-anchor="middle" dy="0.6em">β[1]</text>
      </g>
    </g>
  </g>
  <g class="guide xlabels" font-size="2.82" font-family="'PT Sans Caption','Helvetica Neue','Helvetica',sans-serif" fill="#6C606B" id="img-ea19d292-3">
    <g transform="translate(20.63,83.32)">
      <g class="primitive">
        <text text-anchor="middle" dy="0.6em">-2</text>
      </g>
    </g>
    <g transform="translate(30.89,83.32)">
      <g class="primitive">
        <text text-anchor="middle" dy="0.6em">-1</text>
      </g>
    </g>
    <g transform="translate(41.15,83.32)">
      <g class="primitive">
        <text text-anchor="middle" dy="0.6em">0</text>
      </g>
    </g>
    <g transform="translate(51.41,83.32)">
      <g class="primitive">
        <text text-anchor="middle" dy="0.6em">1</text>
      </g>
    </g>
    <g transform="translate(61.66,83.32)">
      <g class="primitive">
        <text text-anchor="middle" dy="0.6em">2</text>
      </g>
    </g>
    <g transform="translate(71.92,83.32)">
      <g class="primitive">
        <text text-anchor="middle" dy="0.6em">3</text>
      </g>
    </g>
    <g transform="translate(82.18,83.32)">
      <g class="primitive">
        <text text-anchor="middle" dy="0.6em">4</text>
      </g>
    </g>
  </g>
  <g class="guide colorkey" id="img-ea19d292-4">
    <g font-size="2.82" font-family="'PT Sans','Helvetica Neue','Helvetica',sans-serif" fill="#4C404B" id="img-ea19d292-5">
      <g transform="translate(88.49,55.16)">
        <g class="primitive">
          <text dy="0.35em">0.005</text>
        </g>
      </g>
      <g transform="translate(88.49,62.96)">
        <g class="primitive">
          <text dy="0.35em">0.000</text>
        </g>
      </g>
      <g transform="translate(88.49,39.58)">
        <g class="primitive">
          <text dy="0.35em">0.015</text>
        </g>
      </g>
      <g transform="translate(88.49,47.37)">
        <g class="primitive">
          <text dy="0.35em">0.010</text>
        </g>
      </g>
    </g>
    <g shape-rendering="crispEdges" stroke="#000000" stroke-opacity="0.000" id="img-ea19d292-6">
      <g transform="translate(86.84,62.66)" fill="#004D84">
        <path d="M-0.66,-0.29 L 0.66 -0.29 0.66 0.29 -0.66 0.29 z" class="primitive"/>
      </g>
      <g transform="translate(86.84,62.08)" fill="#005B8D">
        <path d="M-0.66,-0.29 L 0.66 -0.29 0.66 0.29 -0.66 0.29 z" class="primitive"/>
      </g>
      <g transform="translate(86.84,61.49)" fill="#006995">
        <path d="M-0.66,-0.29 L 0.66 -0.29 0.66 0.29 -0.66 0.29 z" class="primitive"/>
      </g>
      <g transform="translate(86.84,60.91)" fill="#00769D">
        <path d="M-0.66,-0.29 L 0.66 -0.29 0.66 0.29 -0.66 0.29 z" class="primitive"/>
      </g>
      <g transform="translate(86.84,60.33)" fill="#0083A3">
        <path d="M-0.66,-0.29 L 0.66 -0.29 0.66 0.29 -0.66 0.29 z" class="primitive"/>
      </g>
      <g transform="translate(86.84,59.74)" fill="#278FA9">
        <path d="M-0.66,-0.29 L 0.66 -0.29 0.66 0.29 -0.66 0.29 z" class="primitive"/>
      </g>
      <g transform="translate(86.84,59.16)" fill="#409BAF">
        <path d="M-0.66,-0.29 L 0.66 -0.29 0.66 0.29 -0.66 0.29 z" class="primitive"/>
      </g>
      <g transform="translate(86.84,58.57)" fill="#55A7B5">
        <path d="M-0.66,-0.29 L 0.66 -0.29 0.66 0.29 -0.66 0.29 z" class="primitive"/>
      </g>
      <g transform="translate(86.84,57.99)" fill="#69B2BA">
        <path d="M-0.66,-0.29 L 0.66 -0.29 0.66 0.29 -0.66 0.29 z" class="primitive"/>
      </g>
      <g transform="translate(86.84,57.4)" fill="#7BBCC0">
        <path d="M-0.66,-0.29 L 0.66 -0.29 0.66 0.29 -0.66 0.29 z" class="primitive"/>
      </g>
      <g transform="translate(86.84,56.82)" fill="#8DC6C5">
        <path d="M-0.66,-0.29 L 0.66 -0.29 0.66 0.29 -0.66 0.29 z" class="primitive"/>
      </g>
      <g transform="translate(86.84,56.24)" fill="#9ED0CB">
        <path d="M-0.66,-0.29 L 0.66 -0.29 0.66 0.29 -0.66 0.29 z" class="primitive"/>
      </g>
      <g transform="translate(86.84,55.65)" fill="#A5CFC7">
        <path d="M-0.66,-0.29 L 0.66 -0.29 0.66 0.29 -0.66 0.29 z" class="primitive"/>
      </g>
      <g transform="translate(86.84,55.07)" fill="#ABCEC4">
        <path d="M-0.66,-0.29 L 0.66 -0.29 0.66 0.29 -0.66 0.29 z" class="primitive"/>
      </g>
      <g transform="translate(86.84,54.48)" fill="#B1CCC2">
        <path d="M-0.66,-0.29 L 0.66 -0.29 0.66 0.29 -0.66 0.29 z" class="primitive"/>
      </g>
      <g transform="translate(86.84,53.9)" fill="#B5CCC1">
        <path d="M-0.66,-0.29 L 0.66 -0.29 0.66 0.29 -0.66 0.29 z" class="primitive"/>
      </g>
      <g transform="translate(86.84,53.31)" fill="#B7CBBF">
        <path d="M-0.66,-0.29 L 0.66 -0.29 0.66 0.29 -0.66 0.29 z" class="primitive"/>
      </g>
      <g transform="translate(86.84,52.73)" fill="#B9CBBD">
        <path d="M-0.66,-0.29 L 0.66 -0.29 0.66 0.29 -0.66 0.29 z" class="primitive"/>
      </g>
      <g transform="translate(86.84,52.15)" fill="#BBCBBB">
        <path d="M-0.66,-0.29 L 0.66 -0.29 0.66 0.29 -0.66 0.29 z" class="primitive"/>
      </g>
      <g transform="translate(86.84,51.56)" fill="#BDCABA">
        <path d="M-0.66,-0.29 L 0.66 -0.29 0.66 0.29 -0.66 0.29 z" class="primitive"/>
      </g>
      <g transform="translate(86.84,50.98)" fill="#BFCAB8">
        <path d="M-0.66,-0.29 L 0.66 -0.29 0.66 0.29 -0.66 0.29 z" class="primitive"/>
      </g>
      <g transform="translate(86.84,50.39)" fill="#C2C9B7">
        <path d="M-0.66,-0.29 L 0.66 -0.29 0.66 0.29 -0.66 0.29 z" class="primitive"/>
      </g>
      <g transform="translate(86.84,49.81)" fill="#C4C9B6">
        <path d="M-0.66,-0.29 L 0.66 -0.29 0.66 0.29 -0.66 0.29 z" class="primitive"/>
      </g>
      <g transform="translate(86.84,49.22)" fill="#C6C8B5">
        <path d="M-0.66,-0.29 L 0.66 -0.29 0.66 0.29 -0.66 0.29 z" class="primitive"/>
      </g>
      <g transform="translate(86.84,48.64)" fill="#C9C7B4">
        <path d="M-0.66,-0.29 L 0.66 -0.29 0.66 0.29 -0.66 0.29 z" class="primitive"/>
      </g>
      <g transform="translate(86.84,48.06)" fill="#CCC7B2">
        <path d="M-0.66,-0.29 L 0.66 -0.29 0.66 0.29 -0.66 0.29 z" class="primitive"/>
      </g>
      <g transform="translate(86.84,47.47)" fill="#CFC6AE">
        <path d="M-0.66,-0.29 L 0.66 -0.29 0.66 0.29 -0.66 0.29 z" class="primitive"/>
      </g>
      <g transform="translate(86.84,46.89)" fill="#D4C5AA">
        <path d="M-0.66,-0.29 L 0.66 -0.29 0.66 0.29 -0.66 0.29 z" class="primitive"/>
      </g>
      <g transform="translate(86.84,46.3)" fill="#D8C3A6">
        <path d="M-0.66,-0.29 L 0.66 -0.29 0.66 0.29 -0.66 0.29 z" class="primitive"/>
      </g>
      <g transform="translate(86.84,45.72)" fill="#D3B79A">
        <path d="M-0.66,-0.29 L 0.66 -0.29 0.66 0.29 -0.66 0.29 z" class="primitive"/>
      </g>
      <g transform="translate(86.84,45.13)" fill="#CDAB8E">
        <path d="M-0.66,-0.29 L 0.66 -0.29 0.66 0.29 -0.66 0.29 z" class="primitive"/>
      </g>
      <g transform="translate(86.84,44.55)" fill="#C89E82">
        <path d="M-0.66,-0.29 L 0.66 -0.29 0.66 0.29 -0.66 0.29 z" class="primitive"/>
      </g>
      <g transform="translate(86.84,43.97)" fill="#C19177">
        <path d="M-0.66,-0.29 L 0.66 -0.29 0.66 0.29 -0.66 0.29 z" class="primitive"/>
      </g>
      <g transform="translate(86.84,43.38)" fill="#BA836C">
        <path d="M-0.66,-0.29 L 0.66 -0.29 0.66 0.29 -0.66 0.29 z" class="primitive"/>
      </g>
      <g transform="translate(86.84,42.8)" fill="#B27563">
        <path d="M-0.66,-0.29 L 0.66 -0.29 0.66 0.29 -0.66 0.29 z" class="primitive"/>
      </g>
      <g transform="translate(86.84,42.21)" fill="#AA665A">
        <path d="M-0.66,-0.29 L 0.66 -0.29 0.66 0.29 -0.66 0.29 z" class="primitive"/>
      </g>
      <g transform="translate(86.84,41.63)" fill="#A05752">
        <path d="M-0.66,-0.29 L 0.66 -0.29 0.66 0.29 -0.66 0.29 z" class="primitive"/>
      </g>
      <g transform="translate(86.84,41.04)" fill="#96484A">
        <path d="M-0.66,-0.29 L 0.66 -0.29 0.66 0.29 -0.66 0.29 z" class="primitive"/>
      </g>
      <g transform="translate(86.84,40.46)" fill="#8B3844">
        <path d="M-0.66,-0.29 L 0.66 -0.29 0.66 0.29 -0.66 0.29 z" class="primitive"/>
      </g>
      <g transform="translate(86.84,39.88)" fill="#7E273E">
        <path d="M-0.66,-0.29 L 0.66 -0.29 0.66 0.29 -0.66 0.29 z" class="primitive"/>
      </g>
      <g stroke="#FFFFFF" stroke-width="0.2" id="img-ea19d292-7">
        <g transform="translate(86.84,55.16)">
          <path fill="none" d="M-0.66,0 L 0.66 0" class="primitive"/>
        </g>
        <g transform="translate(86.84,62.96)">
          <path fill="none" d="M-0.66,0 L 0.66 0" class="primitive"/>
        </g>
        <g transform="translate(86.84,39.58)">
          <path fill="none" d="M-0.66,0 L 0.66 0" class="primitive"/>
        </g>
        <g transform="translate(86.84,47.37)">
          <path fill="none" d="M-0.66,0 L 0.66 0" class="primitive"/>
        </g>
      </g>
    </g>
    <g fill="#362A35" font-size="3.88" font-family="'PT Sans','Helvetica Neue','Helvetica',sans-serif" stroke="#000000" stroke-opacity="0.000" id="img-ea19d292-8">
      <g transform="translate(86.18,35.58)">
        <g class="primitive">
          <text dy="-0em">Density</text>
        </g>
      </g>
    </g>
  </g>
  <g clip-path="url(#img-ea19d292-9)">
    <g id="img-ea19d292-10">
      <g pointer-events="visible" fill="#000000" fill-opacity="0.000" stroke="#000000" stroke-opacity="0.000" class="guide background" id="img-ea19d292-11">
        <g transform="translate(51.41,43.66)" id="img-ea19d292-12">
          <path d="M-32.77,-38.66 L 32.77 -38.66 32.77 38.66 -32.77 38.66 z" class="primitive"/>
        </g>
      </g>
      <g class="guide ygridlines xfixed" stroke-dasharray="0.5,0.5" stroke-width="0.2" stroke="#D0D0E0" id="img-ea19d292-13">
        <g transform="translate(51.41,80.32)" id="img-ea19d292-14">
          <path fill="none" d="M-32.77,0 L 32.77 0" class="primitive"/>
        </g>
        <g transform="translate(51.41,55.88)" id="img-ea19d292-15">
          <path fill="none" d="M-32.77,0 L 32.77 0" class="primitive"/>
        </g>
        <g transform="translate(51.41,31.44)" id="img-ea19d292-16">
          <path fill="none" d="M-32.77,0 L 32.77 0" class="primitive"/>
        </g>
        <g transform="translate(51.41,7)" id="img-ea19d292-17">
          <path fill="none" d="M-32.77,0 L 32.77 0" class="primitive"/>
        </g>
      </g>
      <g class="guide xgridlines yfixed" stroke-dasharray="0.5,0.5" stroke-width="0.2" stroke="#D0D0E0" id="img-ea19d292-18">
        <g transform="translate(20.63,43.66)" id="img-ea19d292-19">
          <path fill="none" d="M0,-38.66 L 0 38.66" class="primitive"/>
        </g>
        <g transform="translate(30.89,43.66)" id="img-ea19d292-20">
          <path fill="none" d="M0,-38.66 L 0 38.66" class="primitive"/>
        </g>
        <g transform="translate(41.15,43.66)" id="img-ea19d292-21">
          <path fill="none" d="M0,-38.66 L 0 38.66" class="primitive"/>
        </g>
        <g transform="translate(51.41,43.66)" id="img-ea19d292-22">
          <path fill="none" d="M0,-38.66 L 0 38.66" class="primitive"/>
        </g>
        <g transform="translate(61.66,43.66)" id="img-ea19d292-23">
          <path fill="none" d="M0,-38.66 L 0 38.66" class="primitive"/>
        </g>
        <g transform="translate(71.92,43.66)" id="img-ea19d292-24">
          <path fill="none" d="M0,-38.66 L 0 38.66" class="primitive"/>
        </g>
        <g transform="translate(82.18,43.66)" id="img-ea19d292-25">
          <path fill="none" d="M0,-38.66 L 0 38.66" class="primitive"/>
        </g>
      </g>
      <g class="plotpanel" id="img-ea19d292-26">
        <metadata>
          <boundingbox value="18.63166666666666mm 5.0mm 65.54749999999999mm 77.315mm"/>
          <unitbox value="-2.194971363580974 1.5409193207392757 6.389942727161948 -1.5818386414785515"/>
        </metadata>
        <g stroke-width="0.3" fill="#000000" fill-opacity="0.000" class="geometry" id="img-ea19d292-27">
          <g transform="translate(46.07,39.07)" id="img-ea19d292-28" stroke-dasharray="none" class="color_" stroke="#006C97">
            <path fill="none" d="M-2.92,-15.66 L -2.59 -16.27 -1.8 -15.66 -1.58 -13.54 -1.25 -13.01 -0.24 -11.43 0.1 -11.29 1.35 -9.31 1.44 -9.22 1.77 -9.31 2.78 -9.84 3.11 -9.31 2.78 -8.92 2.29 -7.2 2.78 -6.34 3.57 -5.08 4.12 -4.22 5.46 -3.94 6.07 -2.97 6.8 -1.59 7.27 -0.85 8.14 0.52 9.48 0.38 10.11 1.26 10.65 3.38 10.58 5.49 10.82 5.87 12.16 6.62 12.88 7.61 13.16 9.72 13.5 10.41 14.51 11.84 14.84 12.63 15.68 13.95 16.18 14.55 17.47 16.07 17.52 16.24 18.86 17.39 19.87 18.18 18.86 19.77 18.8 20.3 18.86 20.83 19.87 22.41 18.86 24 17.52 24.26 17.48 24.53 16.18 26.17 15.43 26.64 15.46 28.76 14.84 29.59 14.31 28.76 14.37 26.64 13.5 25.5 12.16 26.38 11.69 24.53 10.82 22.81 9.48 23.34 8.89 22.41 8.14 21.94 7.27 20.3 6.8 19.17 5.46 19.11 4.87 18.18 4.12 17.23 3.5 16.07 2.79 13.95 2.78 13.78 1.44 12.95 0.49 13.95 0.1 14.57 -0.3 13.95 -0.16 11.84 -0.83 9.72 -1.25 9.52 -2.46 7.61 -2.59 7.17 -3.93 7.5 -4.84 5.49 -5.27 4.9 -6.23 3.38 -5.85 1.26 -6.61 0.87 -7.8 -0.85 -7.95 -1.23 -8.79 -0.85 -9.29 -0.59 -9.49 -0.85 -9.62 -2.97 -10.58 -5.08 -10.63 -5.19 -11.97 -6.88 -12.47 -7.2 -13.31 -8.52 -13.56 -9.31 -13.31 -9.84 -12.88 -11.43 -13.31 -12.22 -14.32 -11.43 -14.65 -11.03 -14.82 -11.43 -15.24 -13.54 -15.66 -15.66 -15.95 -17.77 -15.99 -18.3 -16.33 -17.77 -17.33 -16.19 -17.5 -17.77 -18.17 -19.89 -18.5 -22 -17.53 -24.12 -17.33 -25.7 -17.22 -26.23 -15.99 -27.06 -15.38 -26.23 -14.65 -24.51 -13.31 -26.06 -12.57 -24.12 -11.97 -23.16 -10.74 -22 -10.63 -21.93 -9.29 -21.12 -8.82 -19.89 -7.95 -18.74 -6.61 -18.51 -5.27 -18.04 -4.93 -17.77 -5.27 -17.24 -5.54 -15.66 -5.27 -15.22 -3.93 -14.42 -2.92 -15.66" class="primitive"/>
          </g>
          <g transform="translate(31.96,16.89)" id="img-ea19d292-29" stroke-dasharray="none" class="color_" stroke="#006C97">
            <path fill="none" d="M-0.96,0.17 L -0.54 0.7 0.8 0.7 1.4 0.17 0.8 -0.78 -0.54 -1.15 -0.96 0.17" class="primitive"/>
          </g>
          <g transform="translate(64.16,69.76)" id="img-ea19d292-30" stroke-dasharray="none" class="color_" stroke="#006C97">
            <path fill="none" d="M-0.9,0.18 L -0.57 -1.4 0.77 -0.98 1.39 0.18 0.77 1.34 -0.57 0.5 -0.9 0.18" class="primitive"/>
          </g>
          <g transform="translate(48.99,57.25)" id="img-ea19d292-31" stroke-dasharray="none" class="color_" stroke="#006C97">
            <path fill="none" d="M0.45,0 L -0.14 -0.74 -0.61 0 -0.14 0.74 0.45 0" class="primitive"/>
          </g>
          <g transform="translate(62.46,57.25)" id="img-ea19d292-32" stroke-dasharray="none" class="color_" stroke="#006C97">
            <path fill="none" d="M0.52,0 L -0.2 -0.76 -0.64 0 -0.2 0.76 0.52 0" class="primitive"/>
          </g>
          <g transform="translate(68.96,67.84)" id="img-ea19d292-33" stroke-dasharray="none" class="color_" stroke="#006C97">
            <path fill="none" d="M-0.25,-0.02 L 0 -0.33 0.5 -0.02 0 0.38 -0.25 -0.02" class="primitive"/>
          </g>
          <g transform="translate(67.67,69.96)" id="img-ea19d292-34" stroke-dasharray="none" class="color_" stroke="#006C97">
            <path fill="none" d="M0.2,-0.03 L -0.05 -0.42 -0.3 -0.03 -0.05 0.5 0.2 -0.03" class="primitive"/>
          </g>
          <g transform="translate(59.63,44.56)" id="img-ea19d292-35" stroke-dasharray="none" class="color_" stroke="#006C97">
            <path fill="none" d="M0.19,0 L -0.06 -0.4 -0.26 0 -0.06 0.4 0.19 0" class="primitive"/>
          </g>
          <g transform="translate(72.95,76.34)" id="img-ea19d292-36" stroke-dasharray="none" class="color_" stroke="#006C97">
            <path fill="none" d="M-0.17,-0.05 L 0.03 -0.32 0.28 -0.05 0.03 0.48 -0.17 -0.05" class="primitive"/>
          </g>
          <g transform="translate(50.27,59.32)" id="img-ea19d292-37" stroke-dasharray="none" class="color_" stroke="#006C97">
            <path fill="none" d="M0.25,0.04 L -0.08 -0.49 -0.34 0.04 -0.08 0.36 0.25 0.04" class="primitive"/>
          </g>
          <g transform="translate(46.73,40.32)" id="img-ea19d292-38" stroke-dasharray="none" class="color_" stroke="#178AA7">
            <path fill="none" d="M-12.56,-12.68 L -12.62 -13.04 -13.46 -14.8 -13.96 -15.86 -14.3 -16.91 -15.31 -18.27 -15.72 -19.03 -15.31 -20.35 -14.64 -21.14 -13.96 -21.5 -12.62 -21.94 -11.28 -21.6 -10.88 -21.14 -11.28 -19.56 -12.62 -20.51 -13.09 -19.03 -12.62 -18.53 -11.28 -18.93 -9.94 -18.5 -8.69 -16.91 -8.6 -16.81 -8.44 -16.91 -7.26 -17.97 -6.84 -16.91 -5.92 -15.47 -4.98 -14.8 -4.58 -14.45 -3.67 -12.68 -3.28 -10.57 -3.24 -10.52 -3.11 -10.57 -1.9 -11.63 -0.89 -10.57 -1.9 -8.66 -1.93 -8.45 -1.9 -8.41 -0.56 -8.38 0.11 -8.45 0.78 -8.63 0.86 -8.45 2.05 -6.34 2.12 -6.24 3.4 -4.22 3.46 -3.17 4.8 -3.64 5.67 -2.11 5.95 0.01 6.14 0.75 6.93 2.12 7.48 2.85 8.82 3.97 8.92 4.24 10.16 6.2 10.5 6.35 11.5 6.88 11.97 8.47 12.85 10.26 13.07 10.58 13.52 12.7 14.1 14.81 14.19 15.34 14.39 16.93 15.53 18.92 16.2 19.04 15.69 21.16 15.95 23.27 15.53 23.8 14.97 23.27 14.86 21.16 14.19 20.8 14.07 21.16 12.85 22.61 12.11 21.16 11.5 20.1 10.3 19.04 10.16 18.69 9.94 19.04 8.82 19.92 7.48 19.57 7.2 19.04 7.48 17.98 7.79 16.93 7.48 16.63 6.14 16.47 4.8 15.08 4.58 14.81 3.46 14.57 2.42 12.7 2.22 10.58 2.12 10.2 0.78 10.5 -0.34 8.47 -0.56 8.09 -1.9 7.41 -2.57 6.35 -3.15 4.24 -3.24 4.17 -4.58 4.03 -5.92 2.25 -6.01 2.12 -5.92 1.86 -5.4 0.01 -5.92 -0.25 -7.26 -1.31 -7.81 -2.11 -8.6 -4.07 -8.74 -4.22 -9.94 -5.81 -10.23 -6.34 -11.24 -8.45 -11.28 -8.63 -12.02 -10.57 -12.56 -12.68" class="primitive"/>
          </g>
          <g transform="translate(62.16,55.13)" id="img-ea19d292-39" stroke-dasharray="none" class="color_" stroke="#178AA7">
            <path fill="none" d="M0.2,0 L 0.09 0.12 -0.58 0 0.09 -0.13 0.2 0" class="primitive"/>
          </g>
          <g transform="translate(59.54,59.38)" id="img-ea19d292-40" stroke-dasharray="none" class="color_" stroke="#178AA7">
            <path fill="none" d="M-0.3,-0.02 L 0.03 -0.37 0.54 -0.02 0.03 0.43 -0.3 -0.02" class="primitive"/>
          </g>
          <g transform="translate(40.8,27.59)" id="img-ea19d292-41" stroke-dasharray="none" class="color_" stroke="#178AA7">
            <path fill="none" d="M-0.05,0.04 L 0.01 -0.22 0.09 0.04 0.01 0.09 -0.05 0.04" class="primitive"/>
          </g>
          <g transform="translate(46.77,40.41)" id="img-ea19d292-42" stroke-dasharray="none" class="color_" stroke="#52A5B4">
            <path fill="none" d="M-12.36,-14.88 L -11.9 -12.77 -11.36 -10.65 -11.33 -10.57 -10.81 -8.54 -9.99 -7.03 -8.65 -6.57 -8.57 -6.42 -7.31 -4.43 -7.25 -4.31 -7.26 -2.19 -5.96 -0.72 -4.66 -0.08 -4.62 0.45 -4.52 2.04 -3.28 3.34 -2.18 4.15 -2.07 6.27 -1.94 6.47 -0.6 7.21 0.09 8.38 0.74 9.56 2.08 9.32 2.38 10.5 2.65 12.61 3.42 13.98 4.76 13.61 6.03 14.73 6.1 14.8 7.44 15.93 8.38 16.84 8.78 17.99 9.51 16.84 10.12 16.56 10.49 16.84 11.46 18.76 12.8 17.37 13.3 16.84 13.18 14.73 12.8 13.93 11.46 12.84 11.38 12.61 11.2 10.5 10.96 8.38 10.12 7.94 9.33 6.27 8.78 5.41 7.98 4.15 7.44 3.62 6.25 2.04 6.1 1.77 5.61 -0.08 4.93 -2.19 4.76 -2.49 4.48 -2.19 3.42 -1.87 3.14 -2.19 2.72 -4.31 2.08 -5.32 1.22 -6.42 0.74 -7.28 -0.6 -7.73 -1.94 -8.01 -2.29 -8.54 -3.28 -10.1 -3.74 -10.65 -4.35 -12.77 -4.62 -13.3 -5 -12.77 -5.96 -12.3 -6.61 -12.77 -7.31 -14.66 -7.51 -14.88 -8.65 -15.78 -9.61 -17 -9.99 -17.47 -11.33 -18.01 -12.67 -17.88 -13.51 -17 -12.67 -15.53 -12.36 -14.88" class="primitive"/>
          </g>
          <g transform="translate(32.75,21.29)" id="img-ea19d292-43" stroke-dasharray="none" class="color_" stroke="#52A5B4">
            <path fill="none" d="M0.18,0 L 0.02 0.53 -0.4 0 0.02 -0.53 0.18 0" class="primitive"/>
          </g>
          <g transform="translate(59.57,61.48)" id="img-ea19d292-44" stroke-dasharray="none" class="color_" stroke="#52A5B4">
            <path fill="none" d="M-0.03,0 L 0 0.07 0.06 0 0 -0.07 -0.03 0" class="primitive"/>
          </g>
          <g transform="translate(36.34,29.64)" id="img-ea19d292-45" stroke-dasharray="none" class="color_" stroke="#52A5B4">
            <path fill="none" d="M-0.73,0.12 L 0.44 -0.81 0.58 0.12 0.44 0.45 -0.73 0.12" class="primitive"/>
          </g>
          <g transform="translate(35.44,25.44)" id="img-ea19d292-46" stroke-dasharray="none" class="color_" stroke="#7DBDC0">
            <path fill="none" d="M-0.45,0.08 L 0 1.78 0.89 0.08 0 -2.03 -0.45 0.08" class="primitive"/>
          </g>
          <g transform="translate(47.76,42.5)" id="img-ea19d292-47" stroke-dasharray="none" class="color_" stroke="#7DBDC0">
            <path fill="none" d="M-4.81,-0.05 L -4.27 0.51 -2.93 1.29 -2.76 2.06 -1.86 4.18 -1.59 4.33 -0.43 6.29 -0.25 6.62 1.09 6.44 1.6 8.41 1.95 10.52 2.43 11.39 3.64 10.52 3.77 10.42 3.83 10.52 5.11 12.23 5.78 12.64 6.45 13.22 7.79 13.69 9.14 13.95 10.21 14.75 10.48 15.28 11.01 14.75 10.81 12.64 10.48 12.33 9.81 10.52 9.71 8.41 9.14 7.14 8.75 6.29 7.79 4.53 7.57 4.18 6.45 2.41 6.07 2.06 5.11 0.89 4.35 -0.05 4.33 -2.17 3.77 -3.68 2.43 -3.6 1.85 -4.28 1.09 -6.4 1.09 -6.4 -0.25 -8.38 -0.7 -8.51 -1.59 -9.08 -2.93 -9.62 -3.6 -10.63 -4.27 -11.69 -5.14 -12.74 -5.61 -14.15 -6.95 -13.96 -8.18 -14.86 -8.29 -15.16 -9.63 -15.92 -9.97 -14.86 -10.42 -12.74 -10.97 -11.4 -11.33 -10.63 -10.97 -9.98 -9.63 -9.67 -9.01 -8.51 -8.29 -7.37 -7.87 -6.4 -7.91 -4.28 -6.95 -3.19 -5.61 -2.83 -5.16 -2.17 -4.81 -0.05" class="primitive"/>
          </g>
          <g transform="translate(34.32,23.43)" id="img-ea19d292-48" stroke-dasharray="none" class="color_" stroke="#7DBDC0">
            <path fill="none" d="M-0.35,-0.02 L -0.21 -0.16 1.13 -0.02 -0.21 0.22 -0.35 -0.02" class="primitive"/>
          </g>
          <g transform="translate(47.82,42.24)" id="img-ea19d292-49" stroke-dasharray="none" class="color_" stroke="#A0D0CA">
            <path fill="none" d="M-9.66,-10.37 L -9.7 -10.48 -10.07 -12.48 -9.7 -13.6 -8.36 -14.24 -7.02 -13.28 -5.68 -12.66 -5.62 -12.48 -4.34 -10.92 -3.99 -10.37 -3 -8.88 -1.87 -8.25 -1.66 -8.16 -0.32 -7.79 0.8 -6.14 1.02 -5.29 1.48 -4.02 2.36 -2.98 3.71 -2.63 3.97 -1.91 3.71 -0.47 3.6 0.21 3.71 0.35 5.03 2.32 5.05 2.34 6.39 3.6 6.92 4.44 7.73 5.71 8.18 6.55 9.07 8.51 9.14 8.66 9.15 10.78 9.93 12.89 9.07 13.68 8.12 12.89 7.73 12.44 6.39 12.63 5.05 12.06 4.09 10.78 3.71 10.15 2.87 10.78 2.36 11.14 2.16 10.78 1.74 8.66 1.97 6.55 1.02 6.25 -0.32 6.15 -1.34 4.44 -1.66 4.09 -2.6 2.32 -3 0.54 -3.78 0.21 -4.34 -0.24 -4.76 -1.91 -5.68 -3.26 -7.02 -3.31 -7.64 -4.02 -7.57 -6.14 -8.36 -7.97 -8.54 -8.25 -9.66 -10.37" class="primitive"/>
          </g>
          <g transform="translate(47.62,41.97)" id="img-ea19d292-50" stroke-dasharray="none" class="color_" stroke="#AFCDC3">
            <path fill="none" d="M-9.45,-12.21 L -8.57 -10.1 -8.15 -9.22 -7.57 -7.98 -6.99 -5.87 -7.1 -3.75 -6.81 -3.42 -5.47 -3.69 -4.13 -1.76 -4.11 -1.64 -2.79 0.25 -2.7 0.48 -2.16 2.59 -1.45 3.93 -0.74 4.71 -0.11 5.76 1.23 6.15 2.57 6.41 2.81 6.82 2.57 7.35 2.16 8.94 2.57 10.79 3.91 9.89 4.61 11.05 5.25 11.91 6.26 11.05 6.59 9.2 7.06 11.05 7.93 11.97 8.72 11.05 8.72 8.94 7.93 6.97 7.88 6.82 6.59 4.78 6.56 4.71 5.25 3.06 5.01 2.59 3.91 0.97 3.58 0.48 3.85 -1.64 2.57 -2.35 1.38 -3.75 1.23 -4.16 0.78 -5.87 -0.11 -7.18 -1.45 -7.47 -2.54 -7.98 -2.79 -8.12 -4.1 -10.1 -4.13 -10.15 -5.47 -11.74 -6.14 -12.21 -6.81 -12.58 -8.15 -13.52 -9.45 -12.21" class="primitive"/>
          </g>
          <g transform="translate(56.94,55.03)" id="img-ea19d292-51" stroke-dasharray="none" class="color_" stroke="#AFCDC3">
            <path fill="none" d="M0.23,0.1 L -0.05 -0.65 -0.36 0.1 -0.05 0.35 0.23 0.1" class="primitive"/>
          </g>
          <g transform="translate(47.01,41)" id="img-ea19d292-52" stroke-dasharray="none" class="color_" stroke="#B7CBBF">
            <path fill="none" d="M-8.41,-11.25 L -7.55 -9.58 -7.27 -9.13 -6.21 -7.16 -6.14 -7.02 -4.87 -5.01 -4.77 -4.9 -4.07 -2.79 -3.53 -2.02 -3.27 -0.67 -2.19 0.88 -1.95 1.44 -1.33 3.56 -0.85 4.47 0.25 5.67 0.49 6.08 1.83 6.75 3.17 6.76 3.76 7.79 3.17 9.11 2.97 9.9 3.17 10.83 4.51 10.33 5.54 12.02 5.86 12.45 6.36 12.02 6.77 9.9 7.2 9.13 7.99 7.79 7.2 6.54 6.81 5.67 5.86 4.47 5.37 3.56 4.51 2.29 3.95 1.44 3.81 -0.67 3.17 -1.03 1.83 -2.56 1.53 -2.79 1.15 -4.9 0.49 -5.88 -0.85 -6.1 -2.19 -6.77 -2.48 -7.02 -3.53 -8.57 -3.95 -9.13 -4.87 -10.21 -6.21 -11.1 -6.3 -11.25 -7.55 -12.11 -8.41 -11.25" class="primitive"/>
          </g>
          <g transform="translate(55.49,51.78)" id="img-ea19d292-53" stroke-dasharray="none" class="color_" stroke="#B7CBBF">
            <path fill="none" d="M-0.22,-0.88 L -0.11 1.24 0.06 1.41 0.21 1.24 0.21 -0.88 0.06 -1.26 -0.22 -0.88" class="primitive"/>
          </g>
          <g transform="translate(39.42,29.83)" id="img-ea19d292-54" stroke-dasharray="none" class="color_" stroke="#BBCBBB">
            <path fill="none" d="M-0.37,-0.08 L 0.05 0.74 0.66 -0.08 0.05 -0.5 -0.37 -0.08" class="primitive"/>
          </g>
          <g transform="translate(47.49,41.3)" id="img-ea19d292-55" stroke-dasharray="none" class="color_" stroke="#BBCBBB">
            <path fill="none" d="M-1.58,3.26 L -1.32 3.75 0.02 5.05 0.24 5.37 1.36 6.08 2.7 5.84 3.64 7.49 4.04 9.3 4.27 9.6 5.38 11.72 5.83 9.6 6.72 7.98 7.01 7.49 6.72 7.04 5.99 5.37 5.38 4.61 4.67 3.26 4.04 2.33 3.24 1.14 2.7 -0.97 2.7 -0.97 1.36 -2.44 0.47 -3.09 0.45 -5.2 0.02 -5.84 -1.32 -5.98 -2.66 -6.72 -3.37 -7.32 -4 -8.26 -4.89 -9.43 -5.34 -9.96 -6.68 -10.39 -7.2 -9.43 -6.68 -8.47 -6.11 -7.32 -5.34 -6.11 -4.54 -5.2 -4 -3.79 -3.92 -3.09 -3.51 -0.97 -2.66 0.25 -2.28 1.14 -1.58 3.26" class="primitive"/>
          </g>
          <g transform="translate(47.68,41.16)" id="img-ea19d292-56" stroke-dasharray="none" class="color_" stroke="#C0C9B8">
            <path fill="none" d="M-1.51,-5.43 L -2.85 -6.23 -3.98 -7.17 -4.19 -7.5 -5.53 -9.11 -5.8 -7.17 -5.53 -6.76 -4.19 -5.72 -4.11 -5.06 -3.9 -2.94 -3.47 -0.83 -2.85 0.05 -2.33 1.29 -1.54 3.4 -1.51 3.46 -0.17 4.34 0.64 5.52 1.17 5.85 2.23 5.52 2.51 5.43 2.7 5.52 3.8 7.63 3.85 7.86 5.19 9.69 6.28 7.63 5.44 5.52 5.19 5.2 4.24 3.4 3.85 2.82 2.81 1.29 2.51 0.1 2.12 -0.83 1.17 -1.87 -0.17 -2.7 -0.22 -2.94 -0.17 -3.38 0.03 -5.06 -0.17 -5.36 -1.51 -5.43" class="primitive"/>
          </g>
          <g transform="translate(48.59,42.56)" id="img-ea19d292-57" stroke-dasharray="none" class="color_" stroke="#C6C8B5">
            <path fill="none" d="M-2.47,-6.46 L -3.76 -7.29 -4.64 -6.46 -4.6 -4.35 -4.14 -2.23 -3.76 -1.69 -3.09 -0.12 -2.42 1.67 -1.22 2 -1.08 2.08 0.26 3.98 1.6 3.65 2.57 4.11 2.94 4.87 3.61 6.23 4.28 7.18 4.78 6.23 4.28 4.64 3.78 4.11 3.1 2 2.94 1.77 1.67 -0.12 1.6 -0.38 0.82 -2.23 0.26 -2.84 -1.08 -3.1 -1.31 -4.35 -2.42 -6.43 -2.47 -6.46" class="primitive"/>
          </g>
          <g transform="translate(46.32,40.34)" id="img-ea19d292-58" stroke-dasharray="none" class="color_" stroke="#C6C8B5">
            <path fill="none" d="M0.43,-0.01 L -0.16 -0.22 -0.55 -0.01 -0.16 0.25 0.43 -0.01" class="primitive"/>
          </g>
          <g transform="translate(45.33,37.98)" id="img-ea19d292-59" stroke-dasharray="none" class="color_" stroke="#CCC7B2">
            <path fill="none" d="M0.24,-1.88 L -0.5 -2.36 -1.01 -1.88 -1.12 0.23 -0.65 2.35 -0.5 2.55 -0.14 2.35 0.84 1.82 1.76 0.23 0.84 -1.5 0.24 -1.88" class="primitive"/>
          </g>
          <g transform="translate(48.61,42.83)" id="img-ea19d292-60" stroke-dasharray="none" class="color_" stroke="#CCC7B2">
            <path fill="none" d="M2.8,1.73 L 1.58 3.01 0.24 2.32 -0.2 1.73 -1.1 1.2 -2.45 1.02 -2.97 -0.39 -2.45 -1.84 -1.1 -2.4 -0.77 -2.5 0.24 -2.69 0.4 -2.5 1.41 -0.39 1.58 -0.03 2.8 1.73" class="primitive"/>
          </g>
          <g transform="translate(45.34,37.44)" id="img-ea19d292-61" stroke-dasharray="none" class="color_" stroke="#D5C4A9">
            <path fill="none" d="M-0.31,-1.34 L -0.51 -1.48 -0.66 -1.34 -0.92 0.77 -0.51 2.53 0.83 2.04 1.57 0.77 0.83 -0.62 -0.31 -1.34" class="primitive"/>
          </g>
          <g transform="translate(48.63,43.21)" id="img-ea19d292-62" stroke-dasharray="none" class="color_" stroke="#D5C4A9">
            <path fill="none" d="M2.43,1.35 L 1.56 2.27 0.47 1.35 0.22 1.09 -1.12 0.24 -2.46 0.26 -2.85 -0.76 -2.46 -1.82 -1.12 -2.03 0.22 -2.62 1.15 -0.76 1.56 0.1 2.43 1.35" class="primitive"/>
          </g>
          <g transform="translate(45.43,38.14)" id="img-ea19d292-63" stroke-dasharray="none" class="color_" stroke="#D0B193">
            <path fill="none" d="M-0.79,0.07 L -0.6 0.91 0.74 1.02 1.3 0.07 0.74 -0.97 -0.6 -1.18 -0.79 0.07" class="primitive"/>
          </g>
          <g transform="translate(48.6,43.23)" id="img-ea19d292-64" stroke-dasharray="none" class="color_" stroke="#D0B193">
            <path fill="none" d="M2.1,1.33 L 1.58 1.87 0.93 1.33 0.24 0.6 -1.1 -0.37 -2.44 -0.15 -2.68 -0.79 -2.44 -1.45 -1.1 -1.32 0.24 -2.18 0.95 -0.79 1.58 0.58 2.1 1.33" class="primitive"/>
          </g>
          <g transform="translate(50.21,44.55)" id="img-ea19d292-65" stroke-dasharray="none" class="color_" stroke="#C29379">
            <path fill="none" d="M0.14,0.01 L -0.03 0.19 -0.23 0.01 -0.03 -0.23 0.14 0.01" class="primitive"/>
          </g>
          <g transform="translate(46.32,42.44)" id="img-ea19d292-66" stroke-dasharray="none" class="color_" stroke="#C29379">
            <path fill="none" d="M-0.25,0 L -0.15 0.26 0.79 0 -0.15 -0.26 -0.25 0" class="primitive"/>
          </g>
          <g transform="translate(48.47,42.44)" id="img-ea19d292-67" stroke-dasharray="none" class="color_" stroke="#C29379">
            <path fill="none" d="M-0.8,0 L 0.38 0.93 0.84 0 0.38 -0.93 -0.8 0" class="primitive"/>
          </g>
          <g transform="translate(45.73,38.2)" id="img-ea19d292-68" stroke-dasharray="none" class="color_" stroke="#C29379">
            <path fill="none" d="M-0.84,0.01 L 0.44 -0.68 0.81 0.01 0.44 0.65 -0.84 0.01" class="primitive"/>
          </g>
          <g transform="translate(48.66,42.44)" id="img-ea19d292-69" stroke-dasharray="none" class="color_" stroke="#B17362">
            <path fill="none" d="M-0.4,0 L 0.19 -0.46 0.42 0 0.19 0.46 -0.4 0" class="primitive"/>
          </g>
          <g transform="translate(45.95,38.21)" id="img-ea19d292-70" stroke-dasharray="none" class="color_" stroke="#B17362">
            <path fill="none" d="M-0.42,0.01 L 0.22 -0.34 0.4 0.01 0.22 0.32 -0.42 0.01" class="primitive"/>
          </g>
        </g>
      </g>
    </g>
  </g>
  <g class="guide ylabels" font-size="2.82" font-family="'PT Sans Caption','Helvetica Neue','Helvetica',sans-serif" fill="#6C606B" id="img-ea19d292-71">
    <g transform="translate(17.63,80.32)" id="img-ea19d292-72">
      <g class="primitive">
        <text text-anchor="end" dy="0.35em">0.0</text>
      </g>
    </g>
    <g transform="translate(17.63,55.88)" id="img-ea19d292-73">
      <g class="primitive">
        <text text-anchor="end" dy="0.35em">0.5</text>
      </g>
    </g>
    <g transform="translate(17.63,31.44)" id="img-ea19d292-74">
      <g class="primitive">
        <text text-anchor="end" dy="0.35em">1.0</text>
      </g>
    </g>
    <g transform="translate(17.63,7)" id="img-ea19d292-75">
      <g class="primitive">
        <text text-anchor="end" dy="0.35em">1.5</text>
      </g>
    </g>
  </g>
  <g font-size="3.88" font-family="'PT Sans','Helvetica Neue','Helvetica',sans-serif" fill="#564A55" stroke="#000000" stroke-opacity="0.000" id="img-ea19d292-76">
    <g transform="translate(8.81,41.66)" id="img-ea19d292-77">
      <g class="primitive">
        <text text-anchor="middle" dy="0.35em" transform="rotate(-90,0, 2)">β[2]</text>
      </g>
    </g>
  </g>
</g>
<defs>
  <clipPath id="img-ea19d292-9">
    <path d="M18.63,5 L 84.18 5 84.18 82.32 18.63 82.32" />
  </clipPath>
</defs>
</svg>
